<svg xmlns="http://www.w3.org/2000/svg" viewBox="0 0 192 192" width="192" height="192">
  <defs>
    <linearGradient id="lg" x1="0" x2="1" y1="0" y2="1">
      <stop offset="0" stop-color="#3b82f6"/>
      <stop offset=".55" stop-color="#7c3aed"/>
      <stop offset="1" stop-color="#059669"/>
    </linearGradient>
  </defs>
  <rect width="192" height="192" rx="44" fill="url(#lg)"/>
  <g transform="translate(48 36) scale(3.6)" stroke="#fff" stroke-width="2.5" fill="none" stroke-linecap="round" stroke-linejoin="round">
    <path d="M9.5 3a3 3 0 0 0-3 3 2.5 2.5 0 0 0-2 4 2.5 2.5 0 0 0 0 4 2.5 2.5 0 0 0 2 4 3 3 0 0 0 3 3c1.4 0 2.5-1 2.5-2.4V5.4C12 4 10.9 3 9.5 3Z"/>
    <path d="M14.5 3a3 3 0 0 1 3 3 2.5 2.5 0 0 1 2 4 2.5 2.5 0 0 1 0 4 2.5 2.5 0 0 1-2 4 3 3 0 0 1-3 3c-1.4 0-2.5-1-2.5-2.4V5.4C12 4 13.1 3 14.5 3Z"/>
  </g>
</svg>
