<svg xmlns="http://www.w3.org/2000/svg" viewBox="0 0 64 64">
  <defs>
    <linearGradient id="lg" x1="0" x2="1" y1="0" y2="1">
      <stop offset="0" stop-color="#3b82f6"/>
      <stop offset=".55" stop-color="#7c3aed"/>
      <stop offset="1" stop-color="#059669"/>
    </linearGradient>
  </defs>
  <rect width="64" height="64" rx="18" fill="url(#lg)"/>
  <path d="M22 18a8 8 0 0 0-7 12 7 7 0 0 0 0 8 8 8 0 0 0 7 12c2.4 0 4.5-1 5.5-3V21c-1-2-3.1-3-5.5-3Z"
        fill="none" stroke="#fff" stroke-width="2" stroke-linecap="round" stroke-linejoin="round"/>
  <path d="M42 18a8 8 0 0 1 7 12 7 7 0 0 1 0 8 8 8 0 0 1-7 12c-2.4 0-4.5-1-5.5-3V21c1-2 3.1-3 5.5-3Z"
        fill="none" stroke="#fff" stroke-width="2" stroke-linecap="round" stroke-linejoin="round"/>
  <circle cx="49" cy="17" r="6" fill="#fff" opacity=".95"/>
  <circle cx="49" cy="17" r="3" fill="#06d6a0"/>
</svg>
