<svg xmlns="http://www.w3.org/2000/svg" style="display:none">
  <!-- Each icon uses currentColor so theming works. Stroke 2, 24x24 grid. -->
  <symbol id="i-brain" viewBox="0 0 24 24" fill="none" stroke="currentColor" stroke-width="1.8" stroke-linecap="round" stroke-linejoin="round">
    <path d="M9.5 3a3 3 0 0 0-3 3 2.5 2.5 0 0 0-2 4 2.5 2.5 0 0 0 0 4 2.5 2.5 0 0 0 2 4 3 3 0 0 0 3 3c1.4 0 2.5-1 2.5-2.4V5.4C12 4 10.9 3 9.5 3Z"/>
    <path d="M14.5 3a3 3 0 0 1 3 3 2.5 2.5 0 0 1 2 4 2.5 2.5 0 0 1 0 4 2.5 2.5 0 0 1-2 4 3 3 0 0 1-3 3c-1.4 0-2.5-1-2.5-2.4V5.4C12 4 13.1 3 14.5 3Z"/>
    <path d="M9 10h.5M14.5 10H15"/>
  </symbol>
  <symbol id="i-dashboard" viewBox="0 0 24 24" fill="none" stroke="currentColor" stroke-width="1.8" stroke-linecap="round" stroke-linejoin="round">
    <rect x="3" y="3" width="8" height="10" rx="2"/>
    <rect x="13" y="3" width="8" height="6" rx="2"/>
    <rect x="3" y="15" width="8" height="6" rx="2"/>
    <rect x="13" y="11" width="8" height="10" rx="2"/>
  </symbol>
  <symbol id="i-notes" viewBox="0 0 24 24" fill="none" stroke="currentColor" stroke-width="1.8" stroke-linecap="round" stroke-linejoin="round">
    <path d="M14 3H6a2 2 0 0 0-2 2v14a2 2 0 0 0 2 2h12a2 2 0 0 0 2-2V9z"/>
    <path d="M14 3v6h6M8 13h8M8 17h5"/>
  </symbol>
  <symbol id="i-revision" viewBox="0 0 24 24" fill="none" stroke="currentColor" stroke-width="1.8" stroke-linecap="round" stroke-linejoin="round">
    <circle cx="12" cy="12" r="9"/>
    <path d="M12 7v5l3 2"/>
  </symbol>
  <symbol id="i-add" viewBox="0 0 24 24" fill="none" stroke="currentColor" stroke-width="1.8" stroke-linecap="round" stroke-linejoin="round">
    <circle cx="12" cy="12" r="9"/>
    <path d="M12 8v8M8 12h8"/>
  </symbol>
  <symbol id="i-prayer" viewBox="0 0 24 24" fill="none" stroke="currentColor" stroke-width="1.8" stroke-linecap="round" stroke-linejoin="round">
    <path d="M4 21V11l8-6 8 6v10"/>
    <path d="M9 21v-6h6v6"/>
    <path d="M12 3v3"/>
  </symbol>
  <symbol id="i-focus" viewBox="0 0 24 24" fill="none" stroke="currentColor" stroke-width="1.8" stroke-linecap="round" stroke-linejoin="round">
    <circle cx="12" cy="12" r="9"/>
    <circle cx="12" cy="12" r="3"/>
    <path d="M12 3v3M12 18v3M3 12h3M18 12h3"/>
  </symbol>
  <symbol id="i-syllabus" viewBox="0 0 24 24" fill="none" stroke="currentColor" stroke-width="1.8" stroke-linecap="round" stroke-linejoin="round">
    <path d="M4 5a2 2 0 0 1 2-2h11v16H6a2 2 0 0 0-2 2"/>
    <path d="M4 5v14M17 3l3 3v15h-3"/>
    <path d="M8 8h6M8 12h6"/>
  </symbol>
  <symbol id="i-tasks" viewBox="0 0 24 24" fill="none" stroke="currentColor" stroke-width="1.8" stroke-linecap="round" stroke-linejoin="round">
    <rect x="4" y="4" width="16" height="16" rx="3"/>
    <path d="m8 12 3 3 5-6"/>
  </symbol>
  <symbol id="i-settings" viewBox="0 0 24 24" fill="none" stroke="currentColor" stroke-width="1.8" stroke-linecap="round" stroke-linejoin="round">
    <circle cx="12" cy="12" r="3"/>
    <path d="M19.4 15a1.7 1.7 0 0 0 .3 1.8l.1.1a2 2 0 1 1-2.8 2.8l-.1-.1a1.7 1.7 0 0 0-1.8-.3 1.7 1.7 0 0 0-1 1.5V21a2 2 0 0 1-4 0v-.1a1.7 1.7 0 0 0-1-1.5 1.7 1.7 0 0 0-1.8.3l-.1.1a2 2 0 1 1-2.8-2.8l.1-.1a1.7 1.7 0 0 0 .3-1.8 1.7 1.7 0 0 0-1.5-1H3a2 2 0 0 1 0-4h.1a1.7 1.7 0 0 0 1.5-1 1.7 1.7 0 0 0-.3-1.8l-.1-.1a2 2 0 1 1 2.8-2.8l.1.1a1.7 1.7 0 0 0 1.8.3 1.7 1.7 0 0 0 1-1.5V3a2 2 0 0 1 4 0v.1a1.7 1.7 0 0 0 1 1.5 1.7 1.7 0 0 0 1.8-.3l.1-.1a2 2 0 1 1 2.8 2.8l-.1.1a1.7 1.7 0 0 0-.3 1.8 1.7 1.7 0 0 0 1.5 1H21a2 2 0 0 1 0 4h-.1a1.7 1.7 0 0 0-1.5 1Z"/>
  </symbol>
  <symbol id="i-help" viewBox="0 0 24 24" fill="none" stroke="currentColor" stroke-width="1.8" stroke-linecap="round" stroke-linejoin="round">
    <circle cx="12" cy="12" r="9"/>
    <path d="M9.5 9a2.5 2.5 0 1 1 4 2c-1 .8-1.5 1.3-1.5 2.5"/>
    <circle cx="12" cy="17" r=".5" fill="currentColor"/>
  </symbol>
  <symbol id="i-search" viewBox="0 0 24 24" fill="none" stroke="currentColor" stroke-width="1.8" stroke-linecap="round" stroke-linejoin="round">
    <circle cx="11" cy="11" r="7"/><path d="m21 21-4.3-4.3"/>
  </symbol>
  <symbol id="i-bell" viewBox="0 0 24 24" fill="none" stroke="currentColor" stroke-width="1.8" stroke-linecap="round" stroke-linejoin="round">
    <path d="M6 8a6 6 0 1 1 12 0c0 7 3 9 3 9H3s3-2 3-9"/>
    <path d="M10 21a2 2 0 0 0 4 0"/>
  </symbol>
  <symbol id="i-sun" viewBox="0 0 24 24" fill="none" stroke="currentColor" stroke-width="1.8" stroke-linecap="round" stroke-linejoin="round">
    <circle cx="12" cy="12" r="4"/>
    <path d="M12 2v2M12 20v2M4 12H2M22 12h-2M5.6 5.6 4.2 4.2M19.8 19.8l-1.4-1.4M5.6 18.4 4.2 19.8M19.8 4.2l-1.4 1.4"/>
  </symbol>
  <symbol id="i-moon" viewBox="0 0 24 24" fill="none" stroke="currentColor" stroke-width="1.8" stroke-linecap="round" stroke-linejoin="round">
    <path d="M21 12.8A9 9 0 1 1 11.2 3a7 7 0 0 0 9.8 9.8Z"/>
  </symbol>
  <symbol id="i-logout" viewBox="0 0 24 24" fill="none" stroke="currentColor" stroke-width="1.8" stroke-linecap="round" stroke-linejoin="round">
    <path d="M9 21H5a2 2 0 0 1-2-2V5a2 2 0 0 1 2-2h4"/>
    <path d="m16 17 5-5-5-5M21 12H9"/>
  </symbol>
  <symbol id="i-user" viewBox="0 0 24 24" fill="none" stroke="currentColor" stroke-width="1.8" stroke-linecap="round" stroke-linejoin="round">
    <circle cx="12" cy="8" r="4"/>
    <path d="M4 21a8 8 0 0 1 16 0"/>
  </symbol>
  <symbol id="i-chat" viewBox="0 0 24 24" fill="none" stroke="currentColor" stroke-width="1.8" stroke-linecap="round" stroke-linejoin="round">
    <path d="M21 15a2 2 0 0 1-2 2H7l-4 4V5a2 2 0 0 1 2-2h14a2 2 0 0 1 2 2Z"/>
  </symbol>
  <symbol id="i-mic" viewBox="0 0 24 24" fill="none" stroke="currentColor" stroke-width="1.8" stroke-linecap="round" stroke-linejoin="round">
    <rect x="9" y="2" width="6" height="12" rx="3"/>
    <path d="M5 11a7 7 0 0 0 14 0M12 18v3M9 21h6"/>
  </symbol>
  <symbol id="i-mic-off" viewBox="0 0 24 24" fill="none" stroke="currentColor" stroke-width="1.8" stroke-linecap="round" stroke-linejoin="round">
    <path d="M9 9v3a3 3 0 0 0 5 2.2"/>
    <path d="M15 9V5a3 3 0 0 0-6 0v1"/>
    <path d="M5 11a7 7 0 0 0 11 5.5M19 11a7 7 0 0 1-1 3.5"/>
    <path d="M12 18v3M9 21h6M3 3l18 18"/>
  </symbol>
  <symbol id="i-trash" viewBox="0 0 24 24" fill="none" stroke="currentColor" stroke-width="1.8" stroke-linecap="round" stroke-linejoin="round">
    <path d="M3 6h18M8 6V4a2 2 0 0 1 2-2h4a2 2 0 0 1 2 2v2"/>
    <path d="m19 6-1 14a2 2 0 0 1-2 2H8a2 2 0 0 1-2-2L5 6"/>
    <path d="M10 11v6M14 11v6"/>
  </symbol>
  <symbol id="i-check" viewBox="0 0 24 24" fill="none" stroke="currentColor" stroke-width="2" stroke-linecap="round" stroke-linejoin="round">
    <path d="m5 12 5 5L20 7"/>
  </symbol>
  <symbol id="i-x" viewBox="0 0 24 24" fill="none" stroke="currentColor" stroke-width="2" stroke-linecap="round" stroke-linejoin="round">
    <path d="M6 6 18 18M18 6 6 18"/>
  </symbol>
  <symbol id="i-ai" viewBox="0 0 24 24" fill="none" stroke="currentColor" stroke-width="1.8" stroke-linecap="round" stroke-linejoin="round">
    <path d="M12 3v2M12 19v2M3 12h2M19 12h2"/>
    <path d="m6 6 1.5 1.5M16.5 16.5 18 18M6 18l1.5-1.5M16.5 7.5 18 6"/>
    <circle cx="12" cy="12" r="4"/>
  </symbol>
  <symbol id="i-save" viewBox="0 0 24 24" fill="none" stroke="currentColor" stroke-width="1.8" stroke-linecap="round" stroke-linejoin="round">
    <path d="M19 21H5a2 2 0 0 1-2-2V5a2 2 0 0 1 2-2h11l5 5v11a2 2 0 0 1-2 2Z"/>
    <path d="M17 21v-8H7v8M7 3v5h8"/>
  </symbol>
  <symbol id="i-eye" viewBox="0 0 24 24" fill="none" stroke="currentColor" stroke-width="1.8" stroke-linecap="round" stroke-linejoin="round">
    <path d="M2 12s3.5-7 10-7 10 7 10 7-3.5 7-10 7S2 12 2 12Z"/>
    <circle cx="12" cy="12" r="3"/>
  </symbol>
  <symbol id="i-eye-off" viewBox="0 0 24 24" fill="none" stroke="currentColor" stroke-width="1.8" stroke-linecap="round" stroke-linejoin="round">
    <path d="M3 3l18 18"/>
    <path d="M10.6 10.6a3 3 0 0 0 4.2 4.2"/>
    <path d="M9.9 5.1A9 9 0 0 1 22 12a14 14 0 0 1-2.5 3.4M6.5 6.5A14 14 0 0 0 2 12s3.5 7 10 7c1.7 0 3.2-.4 4.6-1"/>
  </symbol>
  <symbol id="i-wifi-off" viewBox="0 0 24 24" fill="none" stroke="currentColor" stroke-width="1.8" stroke-linecap="round" stroke-linejoin="round">
    <path d="M3 3l18 18"/>
    <path d="M5 13a10 10 0 0 1 4.3-2.6M14.7 10.4A10 10 0 0 1 19 13"/>
    <path d="M2 9a16 16 0 0 1 5.5-3M16.5 6A16 16 0 0 1 22 9"/>
    <path d="M8.5 17a5 5 0 0 1 7 0"/>
    <circle cx="12" cy="20" r=".7" fill="currentColor"/>
  </symbol>
  <symbol id="i-sparkles" viewBox="0 0 24 24" fill="none" stroke="currentColor" stroke-width="1.8" stroke-linecap="round" stroke-linejoin="round">
    <path d="M12 3v3M12 18v3M3 12h3M18 12h3"/>
    <path d="M12 7c.5 2.5 2.5 4.5 5 5-2.5.5-4.5 2.5-5 5-.5-2.5-2.5-4.5-5-5 2.5-.5 4.5-2.5 5-5Z"/>
  </symbol>
  <symbol id="i-key" viewBox="0 0 24 24" fill="none" stroke="currentColor" stroke-width="1.8" stroke-linecap="round" stroke-linejoin="round">
    <circle cx="8" cy="15" r="4"/>
    <path d="m11 12 9-9 3 3-3 3 2 2-2 2-3-2-3 3-3-3"/>
  </symbol>
  <symbol id="i-credit" viewBox="0 0 24 24" fill="none" stroke="currentColor" stroke-width="1.8" stroke-linecap="round" stroke-linejoin="round">
    <rect x="2" y="6" width="20" height="14" rx="2"/>
    <path d="M2 11h20M6 16h4"/>
  </symbol>
  <symbol id="i-play" viewBox="0 0 24 24" fill="currentColor"><path d="M8 5v14l11-7Z"/></symbol>
  <symbol id="i-pause" viewBox="0 0 24 24" fill="currentColor"><path d="M6 5h4v14H6zM14 5h4v14h-4z"/></symbol>
  <symbol id="i-send" viewBox="0 0 24 24" fill="none" stroke="currentColor" stroke-width="1.8" stroke-linecap="round" stroke-linejoin="round">
    <path d="m22 2-9 19-2-9-9-2 20-8Z"/>
  </symbol>
  <symbol id="i-chevron-down" viewBox="0 0 24 24" fill="none" stroke="currentColor" stroke-width="1.8" stroke-linecap="round" stroke-linejoin="round">
    <path d="m6 9 6 6 6-6"/>
  </symbol>
  <symbol id="i-refresh" viewBox="0 0 24 24" fill="none" stroke="currentColor" stroke-width="1.8" stroke-linecap="round" stroke-linejoin="round">
    <path d="M3 12a9 9 0 0 1 15.5-6.3L21 8M21 3v5h-5M21 12a9 9 0 0 1-15.5 6.3L3 16M3 21v-5h5"/>
  </symbol>
  <symbol id="i-cache" viewBox="0 0 24 24" fill="none" stroke="currentColor" stroke-width="1.8" stroke-linecap="round" stroke-linejoin="round">
    <ellipse cx="12" cy="5" rx="9" ry="3"/>
    <path d="M3 5v6c0 1.7 4 3 9 3s9-1.3 9-3V5M3 11v6c0 1.7 4 3 9 3s9-1.3 9-3v-6"/>
  </symbol>
  <symbol id="i-shield" viewBox="0 0 24 24" fill="none" stroke="currentColor" stroke-width="1.8" stroke-linecap="round" stroke-linejoin="round">
    <path d="M12 3 4 6v6c0 5 3.5 8 8 9 4.5-1 8-4 8-9V6Z"/>
  </symbol>
  <symbol id="i-book-open" viewBox="0 0 24 24" fill="none" stroke="currentColor" stroke-width="1.8" stroke-linecap="round" stroke-linejoin="round">
    <path d="M2 5a2 2 0 0 1 2-2h6a2 2 0 0 1 2 2v15a2 2 0 0 0-2-2H2Z"/>
    <path d="M22 5a2 2 0 0 0-2-2h-6a2 2 0 0 0-2 2v15a2 2 0 0 1 2-2h8Z"/>
  </symbol>
  <symbol id="i-target" viewBox="0 0 24 24" fill="none" stroke="currentColor" stroke-width="1.8" stroke-linecap="round" stroke-linejoin="round">
    <circle cx="12" cy="12" r="9"/>
    <circle cx="12" cy="12" r="5"/>
    <circle cx="12" cy="12" r="1.5" fill="currentColor"/>
  </symbol>
  <symbol id="i-flame" viewBox="0 0 24 24" fill="none" stroke="currentColor" stroke-width="1.8" stroke-linecap="round" stroke-linejoin="round">
    <path d="M12 3c2 4 6 5 6 10a6 6 0 0 1-12 0c0-3 1-5 3-6 0 2 1 3 3 3-1-3 0-5 0-7Z"/>
  </symbol>
  <symbol id="i-toggle" viewBox="0 0 24 24" fill="none" stroke="currentColor" stroke-width="1.8" stroke-linecap="round" stroke-linejoin="round">
    <rect x="2" y="7" width="20" height="10" rx="5"/>
    <circle cx="8" cy="12" r="3" fill="currentColor"/>
  </symbol>
  <symbol id="i-info" viewBox="0 0 24 24" fill="none" stroke="currentColor" stroke-width="1.8" stroke-linecap="round" stroke-linejoin="round">
    <circle cx="12" cy="12" r="9"/><path d="M12 16v-5"/><circle cx="12" cy="8" r=".7" fill="currentColor"/>
  </symbol>
  <symbol id="i-warning" viewBox="0 0 24 24" fill="none" stroke="currentColor" stroke-width="1.8" stroke-linecap="round" stroke-linejoin="round">
    <path d="M12 3 2 21h20Z"/><path d="M12 10v5"/><circle cx="12" cy="18" r=".7" fill="currentColor"/>
  </symbol>
  <symbol id="i-clock" viewBox="0 0 24 24" fill="none" stroke="currentColor" stroke-width="1.8" stroke-linecap="round" stroke-linejoin="round">
    <circle cx="12" cy="12" r="9"/><path d="M12 7v5l3 2"/>
  </symbol>
  <symbol id="i-lightbulb" viewBox="0 0 24 24" fill="none" stroke="currentColor" stroke-width="1.8" stroke-linecap="round" stroke-linejoin="round">
    <path d="M9 18h6M10 22h4"/>
    <path d="M12 2a6 6 0 0 0-4 10.5c1 1 1.5 1.8 1.5 3v1h5v-1c0-1.2.5-2 1.5-3A6 6 0 0 0 12 2Z"/>
  </symbol>
  <symbol id="i-gift" viewBox="0 0 24 24" fill="none" stroke="currentColor" stroke-width="1.8" stroke-linecap="round" stroke-linejoin="round">
    <rect x="3" y="8" width="18" height="4" rx="1"/><path d="M12 8v13M5 12v9h14v-9"/>
    <path d="M12 8c-1-3-4-3-4-1s2 1 4 1zM12 8c1-3 4-3 4-1s-2 1-4 1z"/>
  </symbol>
  <symbol id="i-share" viewBox="0 0 24 24" fill="none" stroke="currentColor" stroke-width="1.8" stroke-linecap="round" stroke-linejoin="round">
    <circle cx="18" cy="5" r="3"/><circle cx="6" cy="12" r="3"/><circle cx="18" cy="19" r="3"/>
    <path d="m8.6 13.5 6.8 4M15.4 6.5l-6.8 4"/>
  </symbol>
  <symbol id="i-copy" viewBox="0 0 24 24" fill="none" stroke="currentColor" stroke-width="1.8" stroke-linecap="round" stroke-linejoin="round">
    <rect x="8" y="8" width="13" height="13" rx="2"/><path d="M16 8V4a2 2 0 0 0-2-2H5a2 2 0 0 0-2 2v9a2 2 0 0 0 2 2h3"/>
  </symbol>
  <symbol id="i-link" viewBox="0 0 24 24" fill="none" stroke="currentColor" stroke-width="1.8" stroke-linecap="round" stroke-linejoin="round">
    <path d="M10 14a5 5 0 0 0 7 0l3-3a5 5 0 1 0-7-7l-1 1"/>
    <path d="M14 10a5 5 0 0 0-7 0l-3 3a5 5 0 0 0 7 7l1-1"/>
  </symbol>
  <symbol id="i-users" viewBox="0 0 24 24" fill="none" stroke="currentColor" stroke-width="1.8" stroke-linecap="round" stroke-linejoin="round">
    <path d="M16 21v-2a4 4 0 0 0-4-4H6a4 4 0 0 0-4 4v2"/><circle cx="9" cy="7" r="4"/>
    <path d="M22 21v-2a4 4 0 0 0-3-3.9M16 3.1a4 4 0 0 1 0 7.7"/>
  </symbol>
  <symbol id="i-globe" viewBox="0 0 24 24" fill="none" stroke="currentColor" stroke-width="1.8" stroke-linecap="round" stroke-linejoin="round">
    <circle cx="12" cy="12" r="9"/><path d="M3 12h18M12 3a14 14 0 0 1 0 18M12 3a14 14 0 0 0 0 18"/>
  </symbol>
  <symbol id="i-facebook" viewBox="0 0 24 24" fill="currentColor"><path d="M22 12a10 10 0 1 0-11.6 9.9V14.9H7.9V12h2.5V9.8c0-2.5 1.5-3.9 3.8-3.9 1.1 0 2.2.2 2.2.2v2.5h-1.3c-1.2 0-1.6.8-1.6 1.6V12h2.7l-.4 2.9h-2.3V22A10 10 0 0 0 22 12Z"/></symbol>
  <symbol id="i-telegram" viewBox="0 0 24 24" fill="currentColor"><path d="M22 4 2 11l5 2 2 6 3-3 5 4Z"/></symbol>
  <symbol id="i-whatsapp" viewBox="0 0 24 24" fill="currentColor"><path d="M20 12a8 8 0 0 1-12 6.9L4 20l1.1-4A8 8 0 1 1 20 12Z"/></symbol>
  <symbol id="i-youtube" viewBox="0 0 24 24" fill="currentColor"><path d="M23 7s-.2-1.6-.9-2.3c-.8-.9-1.7-.9-2.1-1C16.6 3.5 12 3.5 12 3.5s-4.6 0-8 .2c-.4.1-1.3.1-2.1 1C1.2 5.4 1 7 1 7s-.2 1.9-.2 3.7v1.7C.8 14.1 1 16 1 16s.2 1.6.9 2.3c.8.9 1.9.9 2.4 1 1.7.1 7.7.2 7.7.2s4.6 0 8-.2c.4-.1 1.3-.1 2.1-1 .7-.7.9-2.3.9-2.3s.2-1.9.2-3.7v-1.7C23.2 8.9 23 7 23 7Zm-13 7.5V8l5 3.3-5 3.2Z"/></symbol>
  <symbol id="i-instagram" viewBox="0 0 24 24" fill="none" stroke="currentColor" stroke-width="1.8">
    <rect x="2" y="2" width="20" height="20" rx="5"/><circle cx="12" cy="12" r="4"/><circle cx="17.5" cy="6.5" r=".8" fill="currentColor"/>
  </symbol>
  <symbol id="i-twitter" viewBox="0 0 24 24" fill="currentColor"><path d="m18 3h3.5l-7.6 8.7L23 21h-7.1l-5.5-7.2L4 21H.5l8-9.3L0 3h7.3l5 6.6Zm-1.2 16h2L7.3 5H5.2Z"/></symbol>
  <symbol id="i-discord" viewBox="0 0 24 24" fill="currentColor"><path d="M20 5a18 18 0 0 0-4.5-1.4l-.2.4A16 16 0 0 0 9 4l-.2-.4A18 18 0 0 0 4 5a19 19 0 0 0-3.4 13 18 18 0 0 0 5.5 2.8l.4-.6c-.6-.2-1.2-.5-1.7-.9l.4-.3a13 13 0 0 0 11.4 0l.4.3c-.6.4-1.2.7-1.7 1l.4.5A18 18 0 0 0 22 18c0-4.7-1-8.7-2-13Z"/></symbol>
  <symbol id="i-linkedin" viewBox="0 0 24 24" fill="currentColor"><path d="M19 3a2 2 0 0 1 2 2v14a2 2 0 0 1-2 2H5a2 2 0 0 1-2-2V5a2 2 0 0 1 2-2zM8 18V10H5v8zM6.5 8.7a1.7 1.7 0 1 1 0-3.4 1.7 1.7 0 0 1 0 3.4ZM19 18v-4.6c0-2.5-1.3-3.7-3.1-3.7-1.4 0-2.1.8-2.4 1.4V10h-3v8h3v-4.4c0-.3 0-.6.1-.8.2-.5.7-1 1.5-1 1 0 1.5.8 1.5 2v4.2z"/></symbol>
  <symbol id="i-image" viewBox="0 0 24 24" fill="none" stroke="currentColor" stroke-width="1.8" stroke-linecap="round" stroke-linejoin="round">
    <rect x="3" y="3" width="18" height="18" rx="2"/><circle cx="8.5" cy="8.5" r="1.5"/><path d="m21 15-5-5L5 21"/>
  </symbol>
  <symbol id="i-megaphone" viewBox="0 0 24 24" fill="none" stroke="currentColor" stroke-width="1.8" stroke-linecap="round" stroke-linejoin="round">
    <path d="M3 11v2a3 3 0 0 0 3 3l2 5h3l-2-5h2l8 4V4l-8 4H6a3 3 0 0 0-3 3Z"/>
  </symbol>
  <symbol id="i-tag" viewBox="0 0 24 24" fill="none" stroke="currentColor" stroke-width="1.8" stroke-linecap="round" stroke-linejoin="round">
    <path d="M20 12 12 20l-9-9V3h8z"/><circle cx="7.5" cy="7.5" r="1.5" fill="currentColor"/>
  </symbol>
</svg>
